<mxfile host="app.diagrams.net" modified="2023-05-04T13:49:57.120Z" agent="Mozilla/5.0 (Windows NT 10.0; Win64; x64) AppleWebKit/537.36 (KHTML, like Gecko) Chrome/112.0.0.0 Safari/537.36 Edg/112.0.1722.68" etag="H_37zkwyFHfgMh61qu2h" version="21.2.6" type="github">
  <diagram name="Seite-1" id="cpmegDW4sDPgJqMAE3no">
    <mxGraphModel dx="1427" dy="869" grid="1" gridSize="10" guides="1" tooltips="1" connect="1" arrows="1" fold="1" page="1" pageScale="1" pageWidth="827" pageHeight="1169" math="0" shadow="0">
      <root>
        <mxCell id="0" />
        <mxCell id="1" parent="0" />
        <mxCell id="bXMx9pOzyWm36aar-IFf-9" style="edgeStyle=orthogonalEdgeStyle;rounded=0;orthogonalLoop=1;jettySize=auto;html=1;exitX=0.5;exitY=0.5;exitDx=0;exitDy=0;exitPerimeter=0;entryX=0;entryY=0.5;entryDx=0;entryDy=0;" parent="1" source="bXMx9pOzyWm36aar-IFf-1" target="bXMx9pOzyWm36aar-IFf-3" edge="1">
          <mxGeometry relative="1" as="geometry" />
        </mxCell>
        <mxCell id="bXMx9pOzyWm36aar-IFf-1" value="Actor" style="shape=umlActor;verticalLabelPosition=bottom;verticalAlign=top;html=1;outlineConnect=0;" parent="1" vertex="1">
          <mxGeometry x="90" y="360" width="30" height="60" as="geometry" />
        </mxCell>
        <mxCell id="bXMx9pOzyWm36aar-IFf-2" value="" style="whiteSpace=wrap;html=1;aspect=fixed;fillColor=none;" parent="1" vertex="1">
          <mxGeometry x="180" y="160" width="580" height="580" as="geometry" />
        </mxCell>
        <mxCell id="bXMx9pOzyWm36aar-IFf-3" value="Programm Starten" style="ellipse;whiteSpace=wrap;html=1;fillColor=none;" parent="1" vertex="1">
          <mxGeometry x="200" y="350" width="120" height="80" as="geometry" />
        </mxCell>
        <mxCell id="bXMx9pOzyWm36aar-IFf-4" value="Config Laden" style="ellipse;whiteSpace=wrap;html=1;fillColor=none;" parent="1" vertex="1">
          <mxGeometry x="330" y="250" width="120" height="80" as="geometry" />
        </mxCell>
        <mxCell id="bXMx9pOzyWm36aar-IFf-5" value="Com Port wählen" style="ellipse;whiteSpace=wrap;html=1;fillColor=none;" parent="1" vertex="1">
          <mxGeometry x="250" y="490" width="120" height="80" as="geometry" />
        </mxCell>
        <mxCell id="bXMx9pOzyWm36aar-IFf-11" value="Read Data" style="ellipse;whiteSpace=wrap;html=1;fillColor=none;" parent="1" vertex="1">
          <mxGeometry x="630" y="390" width="120" height="80" as="geometry" />
        </mxCell>
        <mxCell id="bXMx9pOzyWm36aar-IFf-12" value="Daten Anzeigen" style="ellipse;whiteSpace=wrap;html=1;fillColor=none;" parent="1" vertex="1">
          <mxGeometry x="620" y="560" width="120" height="80" as="geometry" />
        </mxCell>
        <mxCell id="eH923GGChcyp18OpyHSB-5" value="" style="endArrow=classic;html=1;rounded=0;exitX=0.5;exitY=0;exitDx=0;exitDy=0;entryX=0;entryY=0.5;entryDx=0;entryDy=0;" parent="1" source="bXMx9pOzyWm36aar-IFf-3" target="bXMx9pOzyWm36aar-IFf-4" edge="1">
          <mxGeometry width="50" height="50" relative="1" as="geometry">
            <mxPoint x="460" y="300" as="sourcePoint" />
            <mxPoint x="608" y="342" as="targetPoint" />
          </mxGeometry>
        </mxCell>
        <mxCell id="eH923GGChcyp18OpyHSB-7" value="" style="endArrow=classic;html=1;rounded=0;exitX=0.482;exitY=1.088;exitDx=0;exitDy=0;entryX=0;entryY=0.5;entryDx=0;entryDy=0;exitPerimeter=0;" parent="1" source="bXMx9pOzyWm36aar-IFf-3" target="bXMx9pOzyWm36aar-IFf-5" edge="1">
          <mxGeometry width="50" height="50" relative="1" as="geometry">
            <mxPoint x="270" y="360" as="sourcePoint" />
            <mxPoint x="340" y="300" as="targetPoint" />
          </mxGeometry>
        </mxCell>
        <mxCell id="-shsQGMzknbZDMwHBtw1-9" value="&amp;lt;&amp;lt;extend&amp;gt;&amp;gt;" style="html=1;verticalAlign=bottom;labelBackgroundColor=none;endArrow=open;endFill=0;dashed=1;rounded=0;exitX=0.158;exitY=0.958;exitDx=0;exitDy=0;entryX=1;entryY=0.5;entryDx=0;entryDy=0;exitPerimeter=0;" edge="1" parent="1" source="bXMx9pOzyWm36aar-IFf-11" target="bXMx9pOzyWm36aar-IFf-5">
          <mxGeometry width="160" relative="1" as="geometry">
            <mxPoint x="580" y="360" as="sourcePoint" />
            <mxPoint x="740" y="360" as="targetPoint" />
          </mxGeometry>
        </mxCell>
        <mxCell id="-shsQGMzknbZDMwHBtw1-10" value="&amp;lt;&amp;lt;extend&amp;gt;&amp;gt;" style="html=1;verticalAlign=bottom;labelBackgroundColor=none;endArrow=open;endFill=0;dashed=1;rounded=0;exitX=0.5;exitY=0;exitDx=0;exitDy=0;entryX=1;entryY=0.5;entryDx=0;entryDy=0;" edge="1" parent="1" source="bXMx9pOzyWm36aar-IFf-11" target="bXMx9pOzyWm36aar-IFf-4">
          <mxGeometry width="160" relative="1" as="geometry">
            <mxPoint x="664" y="360" as="sourcePoint" />
            <mxPoint x="490" y="348" as="targetPoint" />
          </mxGeometry>
        </mxCell>
        <mxCell id="-shsQGMzknbZDMwHBtw1-11" value="&lt;font style=&quot;font-size: 10px;&quot;&gt;{ COM PORT Bereits gewählt }&lt;/font&gt;" style="text;html=1;align=center;verticalAlign=middle;resizable=0;points=[];autosize=1;strokeColor=none;fillColor=none;" vertex="1" parent="1">
          <mxGeometry x="590" y="310" width="160" height="30" as="geometry" />
        </mxCell>
        <mxCell id="-shsQGMzknbZDMwHBtw1-12" value="&lt;font style=&quot;font-size: 10px;&quot;&gt;{&amp;nbsp;Config Bereits geladen&amp;nbsp;}&lt;/font&gt;" style="text;html=1;align=center;verticalAlign=middle;resizable=0;points=[];autosize=1;strokeColor=none;fillColor=none;" vertex="1" parent="1">
          <mxGeometry x="450" y="460" width="140" height="30" as="geometry" />
        </mxCell>
        <mxCell id="-shsQGMzknbZDMwHBtw1-14" value="&amp;lt;&amp;lt;include&amp;gt;&amp;gt;" style="html=1;verticalAlign=bottom;labelBackgroundColor=none;endArrow=open;endFill=0;dashed=1;rounded=0;exitX=0.5;exitY=1;exitDx=0;exitDy=0;entryX=0.5;entryY=0;entryDx=0;entryDy=0;" edge="1" parent="1" source="bXMx9pOzyWm36aar-IFf-11" target="bXMx9pOzyWm36aar-IFf-12">
          <mxGeometry width="160" relative="1" as="geometry">
            <mxPoint x="340" y="470" as="sourcePoint" />
            <mxPoint x="500" y="470" as="targetPoint" />
          </mxGeometry>
        </mxCell>
      </root>
    </mxGraphModel>
  </diagram>
</mxfile>
